<svg width="128" height="128" viewBox="0 0 128 128" fill="none" xmlns="http://www.w3.org/2000/svg">
<g clip-path="url(#clip0_6_12)">
<rect width="128" height="128" rx="15" fill="#2563EB"/>
<path d="M27.2727 110V16.9091H58.7273C66.0303 16.9091 72 18.2273 76.6364 20.8636C81.303 23.4697 84.7576 27 87 31.4545C89.2424 35.9091 90.3636 40.8788 90.3636 46.3636C90.3636 51.8485 89.2424 56.8333 87 61.3182C84.7879 65.803 81.3636 69.3788 76.7273 72.0455C72.0909 74.6818 66.1515 76 58.9091 76H36.3636V66H58.5455C63.5455 66 67.5606 65.1364 70.5909 63.4091C73.6212 61.6818 75.8182 59.3485 77.1818 56.4091C78.5758 53.4394 79.2727 50.0909 79.2727 46.3636C79.2727 42.6364 78.5758 39.303 77.1818 36.3636C75.8182 33.4242 73.6061 31.1212 70.5455 29.4545C67.4849 27.7576 63.4242 26.9091 58.3636 26.9091H38.5455V110H27.2727Z" fill="white"/>
<path d="M43.5227 110V80.9091H47.0455V93.8636H62.5568V80.9091H66.0795V110H62.5568V96.9886H47.0455V110H43.5227Z" fill="white"/>
<path d="M83.1364 101.972V90.3636H86.1534V110H83.1364V106.676H82.9318C82.4716 107.673 81.7557 108.521 80.7841 109.22C79.8125 109.911 78.5852 110.256 77.1023 110.256C75.875 110.256 74.7841 109.987 73.8295 109.45C72.875 108.905 72.125 108.087 71.5795 106.996C71.0341 105.896 70.7614 104.511 70.7614 102.841V90.3636H73.7784V102.636C73.7784 104.068 74.179 105.21 74.9801 106.062C75.7898 106.915 76.821 107.341 78.0739 107.341C78.8239 107.341 79.5866 107.149 80.3622 106.766C81.1463 106.382 81.8026 105.794 82.331 105.001C82.8679 104.209 83.1364 103.199 83.1364 101.972ZM92.0884 110V83.8182H95.1055V93.483H95.3612C95.5827 93.142 95.8896 92.7074 96.2816 92.179C96.6822 91.642 97.2532 91.1648 97.9947 90.7472C98.7447 90.321 99.7589 90.108 101.037 90.108C102.691 90.108 104.148 90.5213 105.409 91.348C106.671 92.1747 107.655 93.3466 108.363 94.8636C109.07 96.3807 109.424 98.1705 109.424 100.233C109.424 102.312 109.07 104.115 108.363 105.641C107.655 107.158 106.675 108.334 105.422 109.169C104.169 109.996 102.725 110.409 101.088 110.409C99.8271 110.409 98.8171 110.2 98.0586 109.783C97.3001 109.357 96.7163 108.875 96.3072 108.338C95.8981 107.793 95.5827 107.341 95.3612 106.983H95.0032V110H92.0884ZM95.0543 100.182C95.0543 101.665 95.2717 102.973 95.7063 104.107C96.141 105.232 96.7759 106.114 97.6112 106.753C98.4464 107.384 99.4691 107.699 100.679 107.699C101.941 107.699 102.993 107.366 103.837 106.702C104.689 106.028 105.328 105.125 105.755 103.991C106.189 102.849 106.407 101.58 106.407 100.182C106.407 98.8011 106.194 97.5568 105.767 96.4489C105.35 95.3324 104.715 94.4503 103.863 93.8026C103.019 93.1463 101.958 92.8182 100.679 92.8182C99.4521 92.8182 98.4208 93.1293 97.5856 93.7514C96.7504 94.3651 96.1197 95.2259 95.6935 96.3338C95.2674 97.4332 95.0543 98.7159 95.0543 100.182Z" fill="white"/>
<line x1="22" y1="110.5" x2="115" y2="110.5" stroke="white"/>
</g>
<defs>
<clipPath id="clip0_6_12">
<rect width="128" height="128" rx="15" fill="white"/>
</clipPath>
</defs>
</svg>
